<svg width="1728" height="235" viewBox="0 0 1728 235" fill="none" xmlns="http://www.w3.org/2000/svg">
<g clip-path="url(#clip0_43_2883)">
<path d="M-33.7423 78.2146C-4.83928 27.0532 34.589 16.3281 86.8628 7.07031C142.682 -2.81538 172.385 37.8455 228.852 38.69C281.57 39.4785 309.564 15.2088 362.287 14.9752C393.8 14.8356 412.224 13.5773 442.69 22.8801C477.209 33.4203 489.853 60.8956 524.804 69.3216C562.152 78.325 584.736 54.7959 622.315 62.4048C659.167 69.8664 673.176 101.723 710.416 105.882C742.447 109.459 761.108 101.695 791.675 90.072C824.6 77.5522 838.31 57.8715 870.368 42.6424C949.293 5.14892 1000.67 -3.49427 1085.92 1.14162C1170.09 5.71903 1210.38 62.2753 1294.62 64.381C1350.21 65.7705 1381.21 55.104 1435.76 42.6424C1475.58 33.5459 1496.21 17.4859 1536.69 13.9871C1603.32 8.22723 1639.55 72.394 1704.34 53.5117C1719.5 49.0924 1726.47 40.0563 1741.97 37.7019C1813.19 26.8883 1710.1 250.147 1793 250.147C2075.6 250.147 -217.5 209 -33.7423 250.147C31.7218 264.805 -65.508 134.443 -33.7423 78.2146Z" fill="white"/>
</g>
<defs>
<clipPath id="clip0_43_2883">
<rect width="1728" height="235" fill="white"/>
</clipPath>
</defs>
</svg>
