<svg width="1728" height="199" viewBox="0 0 1728 199" fill="none" xmlns="http://www.w3.org/2000/svg">
<g clip-path="url(#clip0_43_2884)">
<path d="M1.62535 1.41082C92.12 -23.9494 116.707 17.0404 168.977 7.51263C224.792 -2.66127 254.494 39.185 310.957 40.0542C363.672 40.8657 391.663 15.8884 444.382 15.648C475.893 15.5043 494.316 14.2094 524.78 23.7834C559.297 34.6309 571.94 62.9073 606.889 71.5788C644.234 80.8448 666.816 56.6297 704.393 64.4604C741.242 72.1396 755.251 104.925 792.489 109.205C824.518 112.887 843.177 104.896 873.742 92.9342C906.665 80.0495 920.375 59.795 952.431 44.1219C1031.35 5.53525 1082.73 -3.35995 1167.96 1.41109C1252.13 6.12196 1292.42 64.3271 1376.66 66.4942C1432.24 67.9243 1463.24 56.9468 1517.78 44.1219C1557.6 34.7601 1578.23 18.2319 1618.71 14.6311C1685.34 8.70328 1721.56 74.7409 1786.35 55.308C1801.51 50.7598 1808.47 41.4603 1823.98 39.0373C1895.19 27.9084 1744.91 279.412 1827.4 257.676C1959 223 -396.5 271.5 -161.5 133.5C-101.974 98.5442 -83.1738 25.1749 1.62535 1.41082Z" fill="#F4F5FF"/>
</g>
<defs>
<clipPath id="clip0_43_2884">
<rect width="1728" height="199" fill="white"/>
</clipPath>
</defs>
</svg>
