<svg width="1761" height="210" viewBox="0 0 1761 210" fill="none" xmlns="http://www.w3.org/2000/svg">
<g clip-path="url(#clip0_49_2903)">
<path d="M-20.3771 8.41082C70.1175 -16.9494 94.7042 24.0404 146.975 14.5126C202.79 4.33873 232.492 46.185 288.954 47.0542C341.669 47.8656 369.661 22.8884 422.38 22.648C453.89 22.5043 472.313 21.2094 502.778 30.7834C537.295 41.6309 549.937 69.9073 584.886 78.5788C622.231 87.8448 644.814 63.6297 682.39 71.4604C719.24 79.1396 733.249 111.925 770.486 116.205C802.515 119.887 821.174 111.896 851.74 99.9342C884.662 87.0495 898.372 66.795 930.428 51.1219C1009.35 12.5353 1060.72 3.64005 1145.96 8.41109C1230.13 13.122 1270.42 71.3271 1354.66 73.4942C1410.24 74.9243 1441.24 63.9467 1495.78 51.1219C1535.59 41.7601 1556.23 25.2319 1596.7 21.6311C1663.33 15.7033 1699.56 81.7409 1764.34 62.308C1779.51 57.7598 1786.47 48.4603 1801.98 46.0373C1873.19 34.9084 1722.9 286.412 1805.4 264.676C1937 230 -418.502 278.5 -183.503 140.5C-123.977 105.544 -105.176 32.1749 -20.3771 8.41082Z" fill="#F4E8E8"/>
</g>
<defs>
<clipPath id="clip0_49_2903">
<rect width="1761" height="210" fill="white"/>
</clipPath>
</defs>
</svg>
