<svg width="1756" height="231" viewBox="0 0 1756 231" fill="none" xmlns="http://www.w3.org/2000/svg">
<g clip-path="url(#clip0_49_2906)">
<path d="M-29.689 78.2146C-0.786057 27.0532 38.6423 16.3281 90.916 7.07031C146.735 -2.81538 176.439 37.8455 232.905 38.69C285.623 39.4785 313.618 15.2088 366.34 14.9752C397.853 14.8356 416.277 13.5773 446.743 22.8801C481.262 33.4203 493.906 60.8956 528.858 69.3216C566.205 78.325 588.789 54.7959 626.368 62.4048C663.22 69.8664 677.23 101.723 714.47 105.882C746.501 109.459 765.161 101.695 795.728 90.072C828.653 77.5522 842.363 57.8715 874.421 42.6424C953.347 5.14892 1004.73 -3.49427 1089.97 1.14162C1174.14 5.71903 1214.43 62.2753 1298.68 64.381C1354.27 65.7705 1385.26 55.104 1439.81 42.6424C1479.63 33.5459 1500.27 17.4859 1540.74 13.9871C1607.38 8.22723 1643.6 72.394 1708.39 53.5117C1723.56 49.0924 1730.52 40.0563 1746.03 37.7019C1817.25 26.8883 1714.15 250.147 1797.05 250.147C2079.66 250.147 -213.447 209 -29.689 250.147C35.775 264.805 -61.4547 134.443 -29.689 78.2146Z" fill="white"/>
</g>
<defs>
<clipPath id="clip0_49_2906">
<rect width="1756" height="231" fill="white"/>
</clipPath>
</defs>
</svg>
