<svg width="1727" height="229" viewBox="0 0 1727 229" fill="none" xmlns="http://www.w3.org/2000/svg">
<g clip-path="url(#clip0_49_2885)">
<path d="M-34.7423 78.2146C-5.83928 27.0532 33.589 16.3281 85.8628 7.07031C141.682 -2.81538 171.385 37.8455 227.852 38.69C280.57 39.4785 308.564 15.2088 361.287 14.9752C392.8 14.8356 411.224 13.5773 441.69 22.8801C476.209 33.4203 488.853 60.8956 523.804 69.3216C561.152 78.325 583.736 54.7959 621.315 62.4048C658.167 69.8664 672.176 101.723 709.416 105.882C741.447 109.459 760.108 101.695 790.675 90.072C823.6 77.5522 837.31 57.8715 869.368 42.6424C948.293 5.14892 999.673 -3.49427 1084.92 1.14162C1169.09 5.71903 1209.38 62.2753 1293.62 64.381C1349.21 65.7705 1380.21 55.104 1434.76 42.6424C1474.58 33.5459 1495.21 17.4859 1535.69 13.9871C1602.32 8.22723 1638.55 72.394 1703.34 53.5117C1718.5 49.0924 1725.47 40.0563 1740.97 37.7019C1812.19 26.8883 1709.1 250.147 1792 250.147C2074.6 250.147 -218.5 209 -34.7423 250.147C30.7218 264.805 -66.508 134.443 -34.7423 78.2146Z" fill="#FFF3F3"/>
</g>
<defs>
<clipPath id="clip0_49_2885">
<rect width="1727" height="229" fill="white"/>
</clipPath>
</defs>
</svg>
