<svg width="1761" height="228" viewBox="0 0 1761 228" fill="none" xmlns="http://www.w3.org/2000/svg">
<g clip-path="url(#clip0_49_2894)">
<path d="M-22.4731 78.2146C6.42985 27.0532 45.8582 16.3281 98.1319 7.07031C153.951 -2.81538 183.654 37.8455 240.121 38.69C292.839 39.4785 320.834 15.2088 373.556 14.9752C405.069 14.8356 423.493 13.5773 453.959 22.8801C488.478 33.4203 501.122 60.8956 536.073 69.3216C573.421 78.325 596.005 54.7959 633.584 62.4048C670.436 69.8664 684.446 101.723 721.685 105.882C753.717 109.459 772.377 101.695 802.944 90.072C835.869 77.5522 849.579 57.8715 881.637 42.6424C960.562 5.14892 1011.94 -3.49427 1097.19 1.14162C1181.36 5.71903 1221.65 62.2753 1305.89 64.381C1361.48 65.7705 1392.48 55.104 1447.03 42.6424C1486.84 33.5459 1507.48 17.4859 1547.96 13.9871C1614.59 8.22723 1650.82 72.394 1715.61 53.5117C1730.77 49.0924 1737.74 40.0563 1753.24 37.7019C1824.46 26.8883 1714.86 241 1797.77 241C2080.37 241 -206.231 209 -22.4731 250.147C42.9909 264.805 -54.2388 134.443 -22.4731 78.2146Z" fill="#334553"/>
</g>
<defs>
<clipPath id="clip0_49_2894">
<rect width="1761" height="228" fill="white"/>
</clipPath>
</defs>
</svg>
